<?xml version="1.0" encoding="UTF-8"?>
<svg data-bbox="10.96 10.76 1058.08 221.48" viewBox="0 0 1080 243" xmlns="http://www.w3.org/2000/svg" data-type="color">
    <g>
        <path d="M151.3 120.43V79.88c0-1.49 1.12-2.6 2.73-2.6h8.93c1.49 0 2.6 1.12 2.6 2.6v42.04l16.62 31.99h3.22l16.62-31.99V79.88c0-1.49.99-2.6 2.6-2.6h8.93c1.61 0 2.6 1.12 2.6 2.6v40.55c0 1.36-.37 3.35-.99 4.71l-20.21 40.05c-.74 1.36-2.23 2.36-3.84 2.36h-14.76c-1.61 0-3.1-.99-3.72-2.36l-20.21-40.05c-.62-1.36-1.12-3.35-1.12-4.71" fill="#ff0000" data-color="1"/>
        <path d="M229.67 99.72c0-14.51 9.8-24.31 24.31-24.31h16.24c14.51 0 24.31 9.8 24.31 24.31v44.77c0 14.51-9.8 24.31-24.31 24.31h-16.24c-14.51 0-24.31-9.8-24.31-24.31zm40.43 55.43c6.2 0 10.29-4.09 10.29-10.17V99.35c0-6.2-4.09-10.29-10.29-10.29h-16c-6.08 0-10.17 4.09-10.17 10.29v45.64c0 6.08 4.09 10.17 10.17 10.17h16z" fill="#ff0000" data-color="1"/>
        <path d="M328.88 153.91v-63h-22.94c-1.61 0-2.6-.99-2.6-2.6v-8.43c0-1.49.99-2.6 2.6-2.6h59.77c1.61 0 2.73 1.12 2.73 2.6v8.43c0 1.61-1.12 2.6-2.73 2.6h-22.69v63h22.69c1.61 0 2.73.99 2.73 2.6v8.43c0 1.61-1.12 2.6-2.73 2.6h-59.77c-1.61 0-2.6-.99-2.6-2.6v-8.43c0-1.61.99-2.6 2.6-2.6z" fill="#ff0000" data-color="1"/>
        <path d="M418.53 77.27c14.51 0 24.31 9.8 24.31 24.31v41.67c0 14.51-9.8 24.31-24.31 24.31h-37.95c-1.49 0-2.61-.99-2.61-2.6V79.88c0-1.49 1.12-2.6 2.61-2.6h37.95zm-.12 76.64c6.2 0 10.17-4.09 10.17-10.17v-42.53c0-6.2-3.97-10.29-10.17-10.29h-26.17v63h26.17z" fill="#ff0000" data-color="1"/>
        <path d="M457.22 153.17c0-1.49.99-2.48 2.48-2.48h8.68c1.49 0 2.48.99 2.48 2.48v11.9c0 1.49-.99 2.48-2.48 2.48h-8.68c-1.49 0-2.48-.99-2.48-2.48z" fill="#ff0000" data-color="1"/>
        <path d="M526.79 77.27c14.51 0 24.31 9.8 24.31 24.31v41.67c0 14.51-9.8 24.31-24.31 24.31h-37.95c-1.49 0-2.61-.99-2.61-2.6V79.88c0-1.49 1.12-2.6 2.61-2.6h37.95zm-.12 76.64c6.2 0 10.17-4.09 10.17-10.17v-42.53c0-6.2-3.97-10.29-10.17-10.29H500.5v63h26.17z" fill="#ff0000" data-color="1"/>
        <path d="M630.33 165.32c0 1.61-.99 2.6-2.6 2.6h-8.93c-1.61 0-2.6-.99-2.6-2.6V154.9l-19.22-25.67h-17.24v36.21c0 1.49-1.12 2.6-2.6 2.6h-9.05c-1.49 0-2.6-1.12-2.6-2.6V79.88c0-1.49 1.12-2.6 2.6-2.6h40.3c13.14 0 21.95 8.8 21.95 21.95v8.56c0 11.41-6.57 19.1-16.74 20.96l15.63 20.83c.74.99 1.12 2.36 1.12 3.47v12.27zm-50.59-74.41v24.68h28.65c4.71 0 7.69-3.1 7.69-7.81v-9.05c0-4.71-2.98-7.81-7.69-7.81h-28.65z" fill="#ff0000" data-color="1"/>
        <path d="M665.18 79.63c.62-1.36 2.11-2.36 3.72-2.36h14.76c1.61 0 3.1.99 3.84 2.36l20.21 40.05c.62 1.36.99 3.35.99 4.84v40.43c0 1.61-.99 2.6-2.6 2.6h-8.93c-1.61 0-2.6-.99-2.6-2.6v-13.64h-36.46v13.64c0 1.61-1.12 2.6-2.6 2.6h-8.93c-1.61 0-2.73-.99-2.73-2.6v-40.43c0-1.49.5-3.47 1.12-4.84zm29.39 58.16v-14.88l-16.62-31.99h-3.22l-16.62 31.99v14.88z" fill="#ff0000" data-color="1"/>
        <path d="M785.71 77.27c1.49 0 2.6 1.12 2.6 2.6v8.43c0 1.61-1.12 2.6-2.6 2.6h-48.24v24.8h45.76c1.49 0 2.6.99 2.6 2.6v8.18c0 1.61-1.12 2.6-2.6 2.6h-45.76v36.33c0 1.49-1.12 2.6-2.6 2.6h-9.05c-1.49 0-2.6-1.12-2.6-2.6V79.88c0-1.49 1.12-2.6 2.6-2.6h59.89z" fill="#ff0000" data-color="1"/>
        <path d="M792.16 79.88c0-1.49.99-2.6 2.6-2.6h59.65c1.61 0 2.61 1.12 2.61 2.6v8.43c0 1.61-.99 2.6-2.61 2.6h-22.69v74.53c0 1.49-.99 2.6-2.6 2.6h-8.93c-1.61 0-2.6-1.12-2.6-2.6V90.91h-22.82c-1.61 0-2.6-.99-2.6-2.6v-8.43z" fill="#ff0000" data-color="1"/>
        <path d="M914.18 99.35c0-6.2-4.09-10.29-10.17-10.29h-15.5c-6.08 0-10.17 4.09-10.17 10.29v4.09c0 3.84 2.36 7.07 5.95 8.18l29.64 8.8c9.05 2.6 15.01 10.66 15.01 19.97v4.09c0 14.51-9.8 24.31-24.31 24.31H889c-14.63 0-24.3-9.8-24.3-24.31v-3.72c0-1.24.74-2.11 1.98-2.11h10.04c1.24 0 2.11.87 2.11 2.11v4.22c0 6.08 4.09 10.17 10.29 10.17h15.38c6.2 0 10.17-4.09 10.17-10.17v-4.09c0-3.84-2.36-7.07-5.95-8.18l-29.64-8.8c-9.05-2.6-15.01-10.66-15.01-19.97v-4.22c0-14.51 9.8-24.31 24.31-24.31h15.63c14.63 0 24.3 9.8 24.3 24.31v3.6c0 1.24-.74 1.98-1.98 1.98h-10.04c-1.24 0-2.11-.74-2.11-1.98z" fill="#ff0000" data-color="1"/>
        <path d="M10.96 207.63V35.37h24.61v172.25H10.96zM84.78 35.37H35.56V10.76h49.22zM35.56 232.24v-24.61h49.22v24.61z" fill="#ff0000" data-color="1"/>
        <path d="M1044.44 10.76v24.61h-49.22V10.76zm-49.22 196.87h49.22v24.61h-49.22zm73.82-172.26v172.25h-24.61V35.37z" fill="#ff0000" data-color="1"/>
    </g>
</svg>
